<svg width="75" height="100" viewBox="0 0 75 100" fill="none" xmlns="http://www.w3.org/2000/svg">
<g clip-path="url(#clip0_2985_114)">
<path d="M4.14052 92.2905H0.200195V75.7939H4.14052V92.2905Z" fill="#154D6B"/>
<path d="M10.4867 92.2904H6.69629V79.0632H10.4867V80.5765C11.5575 79.3701 12.878 78.7705 14.4484 78.7705C15.8832 78.7705 16.9897 79.2131 17.7535 80.0982C18.5244 80.9834 18.9027 82.1255 18.9027 83.5317V92.3047H15.1123V84.4026C15.1123 82.9036 14.427 82.1469 13.0565 82.1469C12.3141 82.1469 11.7002 82.3753 11.2077 82.8393C10.7223 83.3033 10.4796 83.9458 10.4796 84.7738V92.3047L10.4867 92.2904Z" fill="#154D6B"/>
<path d="M29.2097 74.6023L28.81 77.5004C28.2675 77.322 27.7606 77.2292 27.2967 77.2292C26.3401 77.2292 25.8619 77.6289 25.8619 78.4213V79.0637H28.6101V81.9405H25.8619V92.2981H22.0714V81.9405H20.0156V79.0637H22.0714V78.5212C22.0714 77.2506 22.4855 76.237 23.3064 75.4732C24.1344 74.7165 25.3122 74.3311 26.8469 74.3311C27.7892 74.3311 28.5744 74.4239 29.2026 74.6023H29.2097Z" fill="#154D6B"/>
<path d="M43.1585 85.7018C43.1585 87.7647 42.516 89.4279 41.2383 90.6914C39.9605 91.9549 38.2545 92.5831 36.1201 92.5831C33.9858 92.5831 32.2869 91.9478 31.0163 90.6914C29.7457 89.4279 29.1104 87.7647 29.1104 85.7018C29.1104 83.6388 29.7457 81.947 31.0163 80.6764C32.2869 79.4058 33.9858 78.7705 36.1201 78.7705C38.2545 78.7705 39.9534 79.4058 41.2383 80.6764C42.516 81.947 43.1585 83.6245 43.1585 85.7018ZM38.3401 88.3929C38.8612 87.7076 39.1182 86.8011 39.1182 85.6804C39.1182 84.5596 38.8612 83.6531 38.3401 82.9678C37.819 82.2825 37.0838 81.9399 36.1201 81.9399C35.1565 81.9399 34.4426 82.2825 33.9144 82.9678C33.3862 83.6531 33.1221 84.5596 33.1221 85.6804C33.1221 86.8011 33.3862 87.7076 33.9144 88.3929C34.4426 89.0782 35.1779 89.4208 36.1201 89.4208C37.0624 89.4208 37.819 89.0782 38.3401 88.3929Z" fill="#154D6B"/>
<path d="M53.7363 79.2132L52.7441 83.0251C52.2801 82.7609 51.7876 82.6253 51.2594 82.6253C50.467 82.6253 49.8103 82.9251 49.2892 83.5319C48.7681 84.1315 48.5111 84.9238 48.5111 85.8946V92.2834H44.7207V79.0562H48.5111V81.0406C48.9251 80.3625 49.4391 79.82 50.0601 79.4202C50.6812 79.0133 51.3379 78.8135 52.0303 78.8135C52.7227 78.8135 53.2938 78.9491 53.7363 79.2132Z" fill="#154D6B"/>
<path d="M58.3197 92.2907H54.5293V79.0635H58.3197V80.5482C59.3762 79.3561 60.6539 78.7637 62.1601 78.7637C63.9732 78.7637 65.201 79.5061 65.8292 80.9908C66.9499 79.5061 68.4275 78.7637 70.262 78.7637C71.7183 78.7637 72.8104 79.1991 73.5599 80.0771C74.3023 80.9551 74.6735 82.0901 74.6735 83.4963V92.2907H70.8831V84.3601C70.8831 82.8753 70.2121 82.1329 68.8772 82.1329C68.1634 82.1329 67.5923 82.3614 67.1569 82.8111C66.7215 83.2679 66.5002 83.9032 66.5002 84.7313V92.2836H62.7098V84.3529C62.7098 82.8682 62.0388 82.1258 60.7039 82.1258C59.9901 82.1258 59.419 82.3542 58.9836 82.8039C58.5481 83.2608 58.3269 83.8961 58.3269 84.7241V92.2764L58.3197 92.2907Z" fill="#154D6B"/>
<g opacity="0.5">
<path d="M18.0467 99.9577H17.4042L17.2401 99.4438H16.3763L16.2122 99.9577H15.584L16.4691 97.5664H17.1544L18.0395 99.9577H18.0467ZM17.1116 98.9869L16.8118 98.0447L16.512 98.9869H17.1116Z" fill="#154D6B"/>
<path d="M22.6079 98.1156L22.1582 98.3797C22.0226 98.137 21.8227 98.0157 21.5729 98.0157C21.3801 98.0157 21.2302 98.0871 21.116 98.2227C21.0018 98.3583 20.9447 98.5368 20.9447 98.7509C20.9447 98.9651 21.0018 99.1507 21.116 99.2934C21.2302 99.4362 21.3801 99.5076 21.5729 99.5076C21.8156 99.5076 22.0083 99.3791 22.1511 99.115L22.6293 99.3648C22.4009 99.7931 22.044 100.007 21.5657 100.007C21.2088 100.007 20.9162 99.893 20.6949 99.6646C20.4736 99.4362 20.3594 99.1364 20.3594 98.7652C20.3594 98.394 20.4736 98.0942 20.6949 97.8729C20.9162 97.6445 21.2088 97.5303 21.5586 97.5303C22.0297 97.5303 22.3795 97.7301 22.6151 98.1299L22.6079 98.1156Z" fill="#154D6B"/>
<path d="M27.2622 98.1156L26.8125 98.3797C26.6769 98.137 26.477 98.0157 26.2272 98.0157C26.0344 98.0157 25.8845 98.0871 25.7703 98.2227C25.6561 98.3583 25.599 98.5368 25.599 98.7509C25.599 98.9651 25.6561 99.1507 25.7703 99.2934C25.8845 99.4362 26.0344 99.5076 26.2272 99.5076C26.4699 99.5076 26.6626 99.3791 26.8054 99.115L27.2836 99.3648C27.0552 99.7931 26.6983 100.007 26.22 100.007C25.8631 100.007 25.5705 99.893 25.3492 99.6646C25.1279 99.4362 25.0137 99.1364 25.0137 98.7652C25.0137 98.394 25.1279 98.0942 25.3492 97.8729C25.5705 97.6445 25.8631 97.5303 26.2129 97.5303C26.684 97.5303 27.0338 97.7301 27.2694 98.1299L27.2622 98.1156Z" fill="#154D6B"/>
<path d="M32.1096 98.7587C32.1096 99.1156 31.9953 99.4154 31.7741 99.6438C31.5528 99.8794 31.253 99.9936 30.8818 99.9936C30.5106 99.9936 30.2108 99.8794 29.9895 99.6438C29.7682 99.4082 29.6611 99.1156 29.6611 98.7587C29.6611 98.4018 29.7682 98.1091 29.9895 97.8735C30.2108 97.638 30.5106 97.5166 30.8818 97.5166C31.253 97.5166 31.5528 97.638 31.7741 97.8735C31.9953 98.1091 32.1096 98.4018 32.1096 98.7587ZM31.5099 98.7587C31.5099 98.5517 31.4528 98.3803 31.3458 98.2447C31.2316 98.1091 31.0816 98.0448 30.8818 98.0448C30.6819 98.0448 30.5249 98.1162 30.4178 98.2447C30.3107 98.3803 30.2536 98.5517 30.2536 98.7587C30.2536 98.9657 30.3107 99.137 30.4178 99.2726C30.5249 99.4082 30.6819 99.4725 30.8818 99.4725C31.0816 99.4725 31.2387 99.4082 31.3458 99.2726C31.4528 99.137 31.5099 98.9657 31.5099 98.7587Z" fill="#154D6B"/>
<path d="M36.749 97.5586V99.0291C36.749 99.336 36.6562 99.5716 36.4635 99.7429C36.2708 99.9142 36.0209 99.9999 35.6997 99.9999C35.3785 99.9999 35.1215 99.9142 34.9359 99.7429C34.7432 99.5716 34.6504 99.336 34.6504 99.0291V97.5586H35.2286V99.0291C35.2286 99.3289 35.3856 99.4788 35.7069 99.4788C35.8568 99.4788 35.9781 99.4431 36.0566 99.3646C36.1423 99.2861 36.178 99.179 36.178 99.0291V97.5586H36.749Z" fill="#154D6B"/>
<path d="M41.5601 99.9577H40.8748L39.9754 98.3159V99.9577H39.4258V97.5664H40.1396L41.0105 99.1725V97.5664H41.5601V99.9577Z" fill="#154D6B"/>
<path d="M46.1714 98.0725H45.429V99.9499H44.8508V98.0725H44.1084V97.5586H46.1714V98.0725Z" fill="#154D6B"/>
<path d="M49.284 99.9577H48.7129V97.5664H49.284V99.9577Z" fill="#154D6B"/>
<path d="M54.1304 99.9577H53.4452L52.5457 98.3159V99.9577H51.9961V97.5664H52.7099L53.5808 99.1725V97.5664H54.1304V99.9577Z" fill="#154D6B"/>
<path d="M57.9215 97.5162C58.1499 97.5162 58.3569 97.5662 58.5354 97.6661C58.7139 97.7661 58.8566 97.9088 58.9637 98.0944L58.4926 98.3585C58.3712 98.123 58.1785 98.0088 57.9215 98.0088C57.7216 98.0088 57.5717 98.073 57.4575 98.2086C57.3504 98.3443 57.2933 98.5227 57.2933 98.7369C57.2933 98.9796 57.3505 99.1652 57.4647 99.3008C57.5789 99.4364 57.7288 99.5007 57.9287 99.5007C58.0714 99.5007 58.1999 99.465 58.307 99.3936C58.4141 99.3222 58.4783 99.2223 58.4926 99.0938H57.9358V98.6369H59.0708C59.085 98.7012 59.0922 98.7726 59.0922 98.8511C59.0922 99.1794 58.9923 99.4507 58.7852 99.6648C58.5782 99.879 58.2927 99.9861 57.9287 99.9861C57.5646 99.9861 57.2719 99.8719 57.0435 99.6434C56.8222 99.415 56.708 99.1152 56.708 98.7369C56.708 98.3586 56.8222 98.0659 57.0435 97.8375C57.2648 97.6162 57.5646 97.502 57.9287 97.502L57.9215 97.5162Z" fill="#154D6B"/>
</g>
<g opacity="0.1">
<path d="M3.99743 0H70.5903C72.7961 0 74.5878 1.79171 74.5878 3.99743V62.3028C74.5878 64.5085 72.7961 66.3002 70.5903 66.3002H3.99743C1.79171 66.3002 0 64.5085 0 62.3028V3.99743C0 1.79171 1.79171 0 3.99743 0Z" fill="#154D6B"/>
</g>
<g opacity="0.5">
<path d="M45.5784 53.8014C31.8444 53.8014 20.7158 42.6728 20.7158 28.9388C20.7158 15.2047 31.8515 4.07617 45.5784 4.07617C59.3053 4.07617 70.441 15.2047 70.441 28.9388C70.441 42.6728 59.3124 53.8014 45.5784 53.8014Z" fill="#D52A67"/>
</g>
<path d="M45.578 45.5134C36.4267 45.5134 29.0029 38.0896 29.0029 28.9383C29.0029 19.7871 36.4267 12.3633 45.578 12.3633C54.7293 12.3633 62.1531 19.7871 62.1531 28.9383C62.1531 38.0896 54.7364 45.5134 45.578 45.5134Z" fill="#D52A67"/>
<g opacity="0.5">
<path d="M33.1506 47.6554C33.1506 55.6645 26.6547 62.1603 18.6456 62.1603C10.6364 62.1603 4.14062 55.6645 4.14062 47.6554C4.14062 39.6462 10.6364 33.1504 18.6456 33.1504C26.6547 33.1504 33.1506 39.6462 33.1506 47.6554Z" fill="#154D6B"/>
</g>
<mask id="mask0_2985_114" style="mask-type:luminance" maskUnits="userSpaceOnUse" x="4" y="33" width="30" height="30">
<path d="M4.14941 47.6554C4.14941 55.6645 10.6452 62.1603 18.6544 62.1603C26.6635 62.1603 33.1593 55.6645 33.1593 47.6554C33.1593 39.6462 26.6635 33.1504 18.6544 33.1504C10.6452 33.1504 4.14941 39.6462 4.14941 47.6554Z" fill="white"/>
</mask>
<g mask="url(#mask0_2985_114)">
<path d="M16.5752 43.3369V54.9223L37.2905 69.4059L16.5752 83.8894V95.4748L53.8655 69.4059L16.5752 43.3369Z" fill="#CDCCCC"/>
</g>
<path d="M16.5752 2.8623V14.4549L37.2905 28.9384L16.5752 43.4219V55.0074L53.8655 28.9384L16.5752 2.8623Z" fill="white"/>
</g>
<defs>
<clipPath id="clip0_2985_114">
<rect width="74.6734" height="100" fill="white"/>
</clipPath>
</defs>
</svg>
